<svg width="20" height="18" viewBox="0 0 20 18" xmlns="http://www.w3.org/2000/svg">
<path d="M18.6693 8.85253L10.0075 0.197127C9.94518 0.134638 9.8711 0.085062 9.78955 0.0512365C9.708 0.017411 9.62058 0 9.5323 0C9.44401 0 9.35659 0.017411 9.27504 0.0512365C9.19349 0.085062 9.11942 0.134638 9.05705 0.197127L0.395339 8.85253C0.142995 9.10487 0 9.44764 0 9.80513C0 10.5474 0.603523 11.151 1.34583 11.151H2.25848V17.3271C2.25848 17.6993 2.55919 18 2.9314 18H8.18646V13.2896H10.5417V18H16.1332C16.5054 18 16.8061 17.6993 16.8061 17.3271V11.151H17.7188C18.0762 11.151 18.419 11.0101 18.6714 10.7556C19.195 10.2299 19.195 9.37824 18.6693 8.85253Z"/>
</svg>