<svg width="12" height="19" viewBox="0 0 12 19" fill="none" xmlns="http://www.w3.org/2000/svg">
<path d="M5.70258 15.5171C5.03221 15.5171 4.43919 16.0829 4.43919 16.7771V17.24C4.43919 17.96 5.03221 18.5 5.70258 18.5C6.42451 18.5 6.96597 17.96 6.96597 17.24V16.7771C6.96597 16.0829 6.42451 15.5171 5.70258 15.5171ZM11.1429 5.9C11.1429 2.91714 8.69346 0.5 5.70258 0.5C3.71725 0.5 1.96397 1.58 1.03576 3.17429C0.674796 3.79143 0.881063 4.53714 1.47408 4.89714C2.09289 5.25714 2.86639 5.05143 3.22736 4.43429C3.71725 3.58571 4.64545 3.02 5.70258 3.02C7.32694 3.02 8.64189 4.28 8.64189 5.9C8.64189 7.49429 7.32694 8.78 5.70258 8.78C5.03221 8.78 4.43919 9.37143 4.43919 10.04C4.43919 10.0657 4.43919 10.0657 4.46497 10.0914C4.46497 10.1171 4.43919 10.1171 4.43919 10.1429V12.8171C4.43919 13.5371 5.03221 14.0771 5.70258 14.0771C6.42451 14.0771 6.96597 13.5371 6.96597 12.8171V11.1457C9.36383 10.58 11.1429 8.44571 11.1429 5.9Z" fill="white"/>
</svg>
