<svg width="13" height="17" viewBox="0 0 13 17" fill="none" xmlns="http://www.w3.org/2000/svg">
<path d="M2.57861 6.53125C2.6552 6.40234 2.76714 6.31738 2.91444 6.27637C3.06173 6.23535 3.20608 6.25 3.34748 6.32031L10.1348 9.69531C10.2644 9.77734 10.3498 9.8916 10.3911 10.0381C10.4323 10.1846 10.4146 10.3252 10.338 10.46C10.2614 10.5947 10.1495 10.6826 10.0022 10.7236C9.85492 10.7646 9.71057 10.75 9.56917 10.6797L2.78187 7.30469C2.64047 7.22266 2.5521 7.10547 2.51674 6.95312C2.48139 6.80078 2.50202 6.66016 2.57861 6.53125ZM9.00356 7.30469L4.4787 5.05469C4.34908 4.97266 4.26365 4.85547 4.22241 4.70312C4.18116 4.55078 4.19884 4.40723 4.27543 4.27246C4.35202 4.1377 4.46397 4.05273 4.61126 4.01758C4.75855 3.98242 4.9029 4 5.0443 4.07031L9.56917 6.32031C9.71057 6.40234 9.79894 6.5166 9.8343 6.66309C9.86965 6.80957 9.84902 6.9502 9.77243 7.08496C9.69584 7.21973 9.5839 7.30762 9.4366 7.34863C9.28931 7.38965 9.14496 7.375 9.00356 7.30469ZM3.91309 9.69531L8.43795 11.9453C8.57935 12.0273 8.66773 12.1445 8.70308 12.2969C8.73843 12.4492 8.71781 12.5928 8.64122 12.7275C8.56462 12.8623 8.45268 12.9473 8.30539 12.9824C8.15809 13.0176 8.01375 13 7.87234 12.9297L3.34748 10.6797C3.20608 10.5977 3.1177 10.4805 3.08235 10.3281C3.047 10.1758 3.06762 10.0352 3.14422 9.90625C3.22081 9.77734 3.33275 9.69238 3.48005 9.65137C3.62734 9.61035 3.77169 9.625 3.91309 9.69531Z" fill="#212121"/>
<path d="M13 8.5C13 13.1944 10.0899 17 6.5 17C2.91015 17 0 13.1944 0 8.5C0 3.80558 2.91015 0 6.5 0C10.0899 0 13 3.80558 13 8.5ZM1.7906 8.5C1.7906 11.9012 3.89907 14.6585 6.5 14.6585C9.10093 14.6585 11.2094 11.9012 11.2094 8.5C11.2094 5.09878 9.10093 2.34155 6.5 2.34155C3.89907 2.34155 1.7906 5.09878 1.7906 8.5Z" fill="#212121"/>
</svg>
