<svg width="25" height="20" viewBox="0 0 25 20" fill="none" xmlns="http://www.w3.org/2000/svg">
<path d="M24.6648 2.55893C23.7822 2.95001 22.8341 3.21426 21.8373 3.3337C22.8658 2.71831 23.6352 1.74977 24.0021 0.608781C23.0358 1.18272 21.9783 1.5867 20.8755 1.80318C20.1339 1.01135 19.1516 0.486515 18.0812 0.310154C17.0107 0.133793 15.912 0.315775 14.9555 0.827845C13.9991 1.33992 13.2385 2.15343 12.7918 3.14207C12.3451 4.13072 12.2373 5.23919 12.4851 6.29538C10.5272 6.19708 8.6119 5.6882 6.86343 4.80176C5.11495 3.91532 3.5724 2.67114 2.33589 1.14996C1.9131 1.87928 1.66999 2.72487 1.66999 3.62543C1.66952 4.43613 1.86916 5.23442 2.25121 5.94947C2.63325 6.66451 3.18588 7.2742 3.86007 7.72443C3.07819 7.69955 2.31356 7.48828 1.62983 7.10821V7.17163C1.62975 8.30867 2.02306 9.41073 2.74303 10.2908C3.463 11.1709 4.46528 11.7747 5.5798 12C4.85447 12.1963 4.09403 12.2252 3.35589 12.0845C3.67034 13.0629 4.28286 13.9184 5.10771 14.5314C5.93255 15.1443 6.92843 15.484 7.95591 15.5028C6.2117 16.8721 4.05761 17.6148 1.84017 17.6115C1.44737 17.6116 1.0549 17.5887 0.664795 17.5428C2.91563 18.99 5.53576 19.7581 8.2117 19.7551C17.2701 19.7551 22.2221 12.2526 22.2221 5.74575C22.2221 5.53435 22.2168 5.32084 22.2073 5.10944C23.1705 4.41286 24.002 3.55027 24.6627 2.5621L24.6648 2.55893V2.55893Z" fill="#212121"/>
</svg>
